<svg xmlns="http://www.w3.org/2000/svg" width="20" height="23.879" viewBox="0 0 20 23.879">
  <path id="apple" d="M19.99,17.436a13.832,13.832,0,0,1-1.8,3.633l.03-.046q-1.852,2.813-3.687,2.813a6.616,6.616,0,0,1-2.054-.476l.044.016a6.223,6.223,0,0,0-2.156-.459H10.36a5.5,5.5,0,0,0-2.073.488l.035-.014a5.111,5.111,0,0,1-1.88.488H6.427q-2.181,0-4.32-3.716A14.554,14.554,0,0,1,0,12.964v-.02c0-.106-.008-.232-.008-.358A8.482,8.482,0,0,1,1.636,7.552l-.017.024a4.98,4.98,0,0,1,4.041-2.07h.035a9.539,9.539,0,0,1,2.608.45l-.068-.019a8.844,8.844,0,0,0,1.94.426l.041,0a7.162,7.162,0,0,0,2.1-.505l-.048.017a7.9,7.9,0,0,1,2.468-.488h.085a5.223,5.223,0,0,1,3,.944l-.017-.011a7.48,7.48,0,0,1,1.481,1.417l.012.016a9.4,9.4,0,0,0-1.619,1.67l-.017.024a5.064,5.064,0,0,0-.933,2.943v.029h0v.062a5.444,5.444,0,0,0,1,3.155l-.012-.017a4.388,4.388,0,0,0,2.237,1.8l.031.01ZM14.594.6a5.479,5.479,0,0,1-.43,1.988l.014-.036a5.911,5.911,0,0,1-1.333,1.982h0a4.082,4.082,0,0,1-1.522,1.026l-.028.009a7.621,7.621,0,0,1-1.468.242H9.8V5.788a6.514,6.514,0,0,1,1.133-3.682l-.015.023A5.725,5.725,0,0,1,14.474,0l.034,0a1.222,1.222,0,0,1,.035.151V.159a1.248,1.248,0,0,0,.039.169l0-.01q0,.058.007.143T14.593.6Z" transform="translate(0.01)" fill="#fff"/>
</svg>
