<svg xmlns="http://www.w3.org/2000/svg" width="24" height="18" viewBox="0 0 24 18">
  <path id="envelope" d="M23.545,69.944a.282.282,0,0,1,.455.22V79.75A2.251,2.251,0,0,1,21.75,82H2.25A2.251,2.251,0,0,1,0,79.75V70.169a.28.28,0,0,1,.455-.22C1.5,70.764,2.9,71.8,7.678,75.273,8.667,76,10.336,77.514,12,77.5c1.673.014,3.375-1.537,4.327-2.231C21.108,71.8,22.5,70.759,23.545,69.944ZM12,76c1.088.019,2.653-1.369,3.441-1.941,6.22-4.514,6.694-4.908,8.128-6.033A1.122,1.122,0,0,0,24,67.141V66.25A2.251,2.251,0,0,0,21.75,64H2.25A2.251,2.251,0,0,0,0,66.25v.891a1.129,1.129,0,0,0,.431.886c1.434,1.12,1.908,1.519,8.128,6.033C9.347,74.631,10.913,76.019,12,76Z" transform="translate(0 -64)" fill="#fff"/>
</svg>
