<svg xmlns="http://www.w3.org/2000/svg" width="10.479" height="20" viewBox="0 0 10.479 20">
  <path id="facebook" d="M10.383.143V3.316H8.5a1.636,1.636,0,0,0-.22-.014A1.758,1.758,0,0,0,7.1,3.75l0,0A1.973,1.973,0,0,0,6.736,4.9c0,.052,0,.1.006.154V7.318h3.523L9.8,10.875H6.747V20H3.067V10.874H0V7.318H3.067V4.7c-.006-.085-.009-.185-.009-.285A4.632,4.632,0,0,1,4.318,1.23l0,0A4.514,4.514,0,0,1,7.428,0C7.5,0,7.578,0,7.653,0H7.642l.329,0A20.1,20.1,0,0,1,10.48.155l-.1-.01Z" transform="translate(-0.001 0.005)" fill="#fff"/>
</svg>
