<svg xmlns="http://www.w3.org/2000/svg" width="56" height="50.923" viewBox="0 0 56 50.923">
  <path id="folder" d="M.128,18.629,10.315,49.181a2.554,2.554,0,0,0,2.415,1.742H53.466a2.311,2.311,0,0,0,.3-.019l-.013,0,.076-.013a1.666,1.666,0,0,0,.2-.038l.081-.019c.066-.017.132-.038.2-.059l.076-.028c.066-.025.129-.053.2-.087l.062-.03a2.082,2.082,0,0,0,.242-.144l-.008.006a2.227,2.227,0,0,0,.225-.172l0,0,.059-.053c.049-.045.1-.089.142-.136l.066-.072a1.685,1.685,0,0,0,.123-.153l.036-.045.017-.025a2.331,2.331,0,0,0,.134-.212l.015-.023a2.02,2.02,0,0,0,.117-.244l.006-.017.015-.04a2.1,2.1,0,0,0,.076-.225A.6.6,0,0,1,55.925,49c.017-.064.03-.127.042-.2a.743.743,0,0,1,.015-.1c0-.032.013-.121.017-.18a.9.9,0,0,0,0-.108V2.546A2.545,2.545,0,0,0,53.468,0H33.1a2.545,2.545,0,0,0-2.546,2.546V5.092H12.73a2.545,2.545,0,0,0-2.546,2.546v7.638H2.545A2.545,2.545,0,0,0,0,17.821a2.506,2.506,0,0,0,.136.821L.13,18.625ZM50.92,5.092v27.59L45.7,17.012a2.551,2.551,0,0,0-2.415-1.742H15.276V10.185H33.1a2.545,2.545,0,0,0,2.546-2.546V5.094ZM6.078,20.369h35.37l8.487,25.461H14.565Z" transform="translate(-0.001)" fill="#150425"/>
</svg>
