<svg xmlns="http://www.w3.org/2000/svg" width="24.353" height="24.348" viewBox="0 0 24.353 24.348">
  <path id="instagram" d="M12.1,37.756A6.242,6.242,0,1,0,18.347,44,6.233,6.233,0,0,0,12.1,37.756Zm0,10.3A4.058,4.058,0,1,1,16.163,44,4.066,4.066,0,0,1,12.1,48.057ZM20.058,37.5A1.456,1.456,0,1,1,18.6,36.045,1.453,1.453,0,0,1,20.058,37.5Zm4.134,1.478a7.206,7.206,0,0,0-1.967-5.1,7.253,7.253,0,0,0-5.1-1.967c-2.01-.114-8.035-.114-10.046,0a7.243,7.243,0,0,0-5.1,1.961,7.229,7.229,0,0,0-1.967,5.1c-.114,2.01-.114,8.035,0,10.046a7.206,7.206,0,0,0,1.967,5.1,7.262,7.262,0,0,0,5.1,1.967c2.01.114,8.035.114,10.046,0a7.206,7.206,0,0,0,5.1-1.967,7.253,7.253,0,0,0,1.967-5.1c.114-2.01.114-8.03,0-10.04Zm-2.6,12.2a4.109,4.109,0,0,1-2.314,2.314c-1.6.636-5.406.489-7.177.489s-5.58.141-7.177-.489a4.109,4.109,0,0,1-2.314-2.314c-.636-1.6-.489-5.406-.489-7.177s-.141-5.58.489-7.177a4.109,4.109,0,0,1,2.314-2.314c1.6-.636,5.406-.489,7.177-.489s5.58-.141,7.177.489A4.109,4.109,0,0,1,21.6,36.822c.636,1.6.489,5.406.489,7.177S22.231,49.579,21.6,51.176Z" transform="translate(0.075 -31.825)" fill="#f3effe"/>
</svg>
