<svg xmlns="http://www.w3.org/2000/svg" width="28.599" height="23.228" viewBox="0 0 28.599 23.228">
  <path id="twitter" d="M25.659,53.871c.018.254.018.508.018.762,0,7.748-5.9,16.677-16.677,16.677a16.563,16.563,0,0,1-9-2.631,12.124,12.124,0,0,0,1.415.073,11.738,11.738,0,0,0,7.277-2.5,5.872,5.872,0,0,1-5.48-4.065,7.392,7.392,0,0,0,1.107.091,6.2,6.2,0,0,0,1.542-.2,5.862,5.862,0,0,1-4.7-5.752v-.073a5.9,5.9,0,0,0,2.649.744A5.87,5.87,0,0,1,2,49.153a16.661,16.661,0,0,0,12.086,6.134,6.617,6.617,0,0,1-.145-1.343,5.867,5.867,0,0,1,10.144-4.01,11.54,11.54,0,0,0,3.72-1.415,5.846,5.846,0,0,1-2.577,3.23A11.75,11.75,0,0,0,28.6,50.84a12.6,12.6,0,0,1-2.94,3.03Z" transform="translate(0 -48.082)" fill="#f3effe"/>
</svg>
