<svg xmlns="http://www.w3.org/2000/svg" width="20" height="19.5" viewBox="0 0 20 19.5">
  <path id="github" d="M6.69,23.7c0,.081-.093.145-.21.145-.133.012-.226-.052-.226-.145s.093-.145.21-.145S6.69,23.609,6.69,23.7ZM5.435,23.52c-.028.081.052.173.173.2a.189.189,0,0,0,.25-.081c.024-.081-.052-.173-.173-.21a.207.207,0,0,0-.25.093Zm1.782-.069c-.117.028-.2.1-.185.2s.117.133.238.1.2-.1.185-.185S7.335,23.44,7.218,23.452ZM9.871,8A9.669,9.669,0,0,0,0,17.839a10.109,10.109,0,0,0,6.835,9.645c.516.093.7-.226.7-.488S7.52,25.367,7.52,24.52c0,0-2.823.6-3.415-1.2,0,0-.46-1.173-1.121-1.476,0,0-.923-.633.065-.621A2.128,2.128,0,0,1,4.6,22.262a2.132,2.132,0,0,0,2.94.843,2.241,2.241,0,0,1,.645-1.359c-2.254-.25-4.528-.577-4.528-4.456a3.056,3.056,0,0,1,.952-2.375,3.81,3.81,0,0,1,.1-2.738C5.56,11.915,7.5,13.266,7.5,13.266a9.526,9.526,0,0,1,5.065,0s1.94-1.355,2.782-1.089a3.808,3.808,0,0,1,.1,2.738,3.134,3.134,0,0,1,1.04,2.375c0,3.891-2.375,4.2-4.629,4.456a2.385,2.385,0,0,1,.685,1.871c0,1.359-.012,3.04-.012,3.371,0,.262.185.581.7.488A10.016,10.016,0,0,0,20,17.839,9.887,9.887,0,0,0,9.871,8ZM3.919,21.907c-.052.04-.04.133.028.21s.157.093.21.04.04-.133-.028-.21S3.972,21.855,3.919,21.907Zm-.435-.327c-.028.052.012.117.093.157a.12.12,0,0,0,.173-.028c.028-.052-.012-.117-.093-.157C3.577,21.528,3.512,21.54,3.484,21.581ZM4.79,23.016c-.065.052-.04.173.052.25.093.093.21.1.262.04s.028-.173-.052-.25C4.964,22.964,4.843,22.952,4.79,23.016Zm-.46-.593c-.065.04-.065.145,0,.238s.173.133.226.093a.184.184,0,0,0,0-.25c-.056-.093-.161-.133-.226-.081Z" transform="translate(0 -8)" fill="#fff"/>
</svg>
