<svg xmlns="http://www.w3.org/2000/svg" width="33.74" height="51.448" viewBox="0 0 33.74 51.448">
  <g id="lightbulb" transform="translate(-0.001 0.001)">
    <path id="Path_3" data-name="Path 3" d="M28.83,28.826A16.643,16.643,0,0,0,33.741,17v-.15A16.943,16.943,0,0,0,28.83,4.9l0,0A16.639,16.639,0,0,0,17.017,0H16.86A16.943,16.943,0,0,0,4.91,4.91l0,0A16.643,16.643,0,0,0,0,16.734v.15a16.943,16.943,0,0,0,4.911,11.95l0,0a12.134,12.134,0,0,1,3.6,8.645v.049a2.261,2.261,0,0,0,2.261,2.261H22.905a2.084,2.084,0,0,0,1.548-.686l0,0a2.207,2.207,0,0,0,.686-1.6v-.011a12.507,12.507,0,0,1,3.681-8.669Zm-3.3-3.22a16.5,16.5,0,0,0-4.744,9.578l-.009.084H19.628l2.915-14.032a2.287,2.287,0,0,0,.054-.5,2.315,2.315,0,0,0-4.572-.514l0,.015-1.3,6.289-1.46-6.362a2.293,2.293,0,0,0-4.523.536,2.322,2.322,0,0,0,.066.551l0-.015,3.22,13.953H12.948a17.033,17.033,0,0,0-4.754-9.663l0,0a12.223,12.223,0,1,1,17.32.077Z" transform="translate(0)" fill="#150425"/>
    <path id="Path_4" data-name="Path 4" d="M21.392,21.471v-.039a2.261,2.261,0,0,0-2.261-2.261H6.059a2.3,2.3,0,0,0,0,4.6H19.092A2.309,2.309,0,0,0,21.392,21.471Z" transform="translate(4.298 21.925)" fill="#150425"/>
    <path id="Path_5" data-name="Path 5" d="M16.356,21.854H6.774a2.3,2.3,0,1,0,0,4.6h9.582a2.3,2.3,0,0,0,0-4.6h0Z" transform="translate(5.115 24.993)" fill="#150425"/>
  </g>
</svg>
