<svg id="persons" xmlns="http://www.w3.org/2000/svg" width="54.232" height="50.019" viewBox="0 0 54.232 50.019">
  <path id="Path_6" data-name="Path 6" d="M42.711,36.044A15.486,15.486,0,0,0,34.2,30.308l-.106-.023L31.635,34.43a2.089,2.089,0,0,1-2.082,2.082c-1.145,0-2.082-.937-3.176-3.694v-.067a2.6,2.6,0,0,0-5.206,0v.065C20,35.575,19.058,36.51,17.915,36.51a2.089,2.089,0,0,1-2.082-2.082l-2.378-4.152a15.555,15.555,0,0,0-8.592,5.718l-.029.04a9.318,9.318,0,0,0-1.364,4.575v.015c.01.312,0,.677,0,1.041v4.165a4.164,4.164,0,0,0,4.165,4.165H39.912a4.164,4.164,0,0,0,4.165-4.165V41.664c0-.362-.01-.729,0-1.041A9.416,9.416,0,0,0,42.69,36l.023.042Zm-29.873-25c0,6.081,3.79,15.015,10.933,15.015,7.018,0,10.933-8.934,10.933-15.015v-.135a10.933,10.933,0,1,0-21.866,0v.142Z" transform="translate(3.755 0.025)" fill="#150425"/>
  <path id="Path_7" data-name="Path 7" d="M19.2,10.769c0,3.961,2.47,9.783,7.122,9.783,4.571,0,7.122-5.821,7.122-9.783v-.108a7.124,7.124,0,1,0-14.248,0v.108Z" transform="translate(20.784 3.881)" fill="#150425"/>
  <path id="Path_8" data-name="Path 8" d="M0,12.369c0,3.961,2.47,9.783,7.122,9.783,4.571,0,7.122-5.821,7.122-9.783v-.108A7.124,7.124,0,0,0,0,12.261v.108Z" transform="translate(0 5.613)" fill="#150425"/>
</svg>
