<svg xmlns="http://www.w3.org/2000/svg" width="16" height="16" viewBox="0 0 16 16">
  <path id="linkedin" d="M14.857,32H1.139A1.148,1.148,0,0,0,0,33.154V46.846A1.148,1.148,0,0,0,1.139,48H14.857A1.151,1.151,0,0,0,16,46.846V33.154A1.151,1.151,0,0,0,14.857,32ZM4.836,45.714H2.464V38.079H4.839v7.636ZM3.65,37.036a1.375,1.375,0,1,1,1.375-1.375A1.376,1.376,0,0,1,3.65,37.036Zm10.075,8.679H11.354V42c0-.886-.018-2.025-1.232-2.025-1.236,0-1.425.964-1.425,1.961v3.779H6.325V38.079H8.6v1.043h.032a2.5,2.5,0,0,1,2.246-1.232c2.4,0,2.846,1.582,2.846,3.639Z" transform="translate(0 -32)" fill="#241f38"/>
</svg>
